# xmcd
#
# Track frame offsets: 
#        150
#        23051
#        50541
#        70348
#        87736
#        104707
#        124380
#        150980
#        171179
#
# Disc length: 2588 seconds
#
# Revision: 0
# Processed by: cddbd v1.5.2PL0 Copyright (c) Steve Scherf et al.
# Submitted via: ExactAudioCopyFreeDBPlugin 1.0
#
DISCID=7b0a1a09
DTITLE=Danny Bryant - Means Of Escape
DYEAR=2019
DGENRE=Blues
TTITLE0=Tired Of Trying
TTITLE1=Too Far Gone
TTITLE2=Means Of Escape
TTITLE3=Nine Lives
TTITLE4=Skin And Bone
TTITLE5=Warning Signs (In Her Eyes)
TTITLE6=Where The River Ends
TTITLE7=Hurting Time
TTITLE8=Mya
EXTD=
EXTT0=
EXTT1=
EXTT2=
EXTT3=
EXTT4=
EXTT5=
EXTT6=
EXTT7=
EXTT8=
PLAYORDER=
